<svg width="35" height="35" viewBox="0 0 35 35" fill="none" xmlns="http://www.w3.org/2000/svg">
<path d="M0 35V31.6139H17.5747V35H0Z" fill="#682AE9"/>
<path d="M35 27.2748H30.4439V24.3725C29.6874 25.5012 28.7914 26.3446 27.7556 26.9027C26.7315 27.4485 25.6958 27.7213 24.6484 27.7213C22.5187 27.7213 20.6916 26.8097 19.1671 24.9864C17.6542 23.1507 16.8978 20.5957 16.8978 17.3212C16.8978 13.9723 17.6367 11.4296 19.1147 9.69317C20.5927 7.9443 22.4605 7.06987 24.7182 7.06987C26.7897 7.06987 28.5819 7.98771 30.0948 9.8234V0H35V27.2748ZM21.9077 16.9677C21.9077 19.0762 22.1812 20.6019 22.7282 21.5445C23.5195 22.9089 24.6251 23.591 26.0449 23.591C27.1737 23.591 28.1338 23.0825 28.9252 22.0654C29.7165 21.036 30.1122 19.5042 30.1122 17.47C30.1122 15.2002 29.7282 13.5692 28.9601 12.5769C28.192 11.5723 27.2086 11.0699 26.01 11.0699C24.8462 11.0699 23.8687 11.5661 23.0773 12.5583C22.2976 13.5382 21.9077 15.008 21.9077 16.9677Z" fill="#682AE9"/>
</svg>
